<svg t="1675755702970" class="icon" viewBox="0 0 1365 1024" version="1.1" xmlns="http://www.w3.org/2000/svg" p-id="62881" width="200" height="200"><path d="M835.2 284.8h125.013333v515.84c0 26.666667-20.266667 46.933333-46.933333 46.933333H413.226667c-26.666667 0-46.933333-20.266667-46.933334-46.933333v-625.066667c0-26.666667 20.266667-46.933333 46.933334-46.933333h390.826666v125.013333h31.36v31.146667z m-46.933333-15.573333V144.213333H413.226667c-17.28 0-31.36 14.08-31.36 31.36v625.066667c0 17.28 14.08 31.36 31.36 31.36h500.053333c17.28 0 31.36-14.08 31.36-31.36V300.373333h-125.013333v-31.36h-31.36z m0 0" fill="#9FA0A6" p-id="62882"></path><path d="M811.733333 300.373333h-23.466666V128.426667h15.573333v15.573333h15.573333v15.573333h15.573334v15.573334h15.573333v15.573333h15.573333v15.573333h15.573334v15.573334h15.573333v15.573333h15.573333v15.573333h15.573334v15.573334h15.573333v15.573333h15.573333v15.573333h-171.946666v-23.466666c0.64 13.226667 11.52 24.106667 24.106666 24.106666z m0 0M428.8 753.706667h468.906667V785.066667H428.8v-31.36z m0-78.08h468.906667v31.36H428.8v-31.36z m0-78.293334h468.906667v31.36H428.8V597.333333z m0 0" fill="#9FA0A6" p-id="62883"></path><path d="M350.72 206.72h250.026667c17.28 0 31.36 14.08 31.36 31.36v250.026667c0 17.28-14.08 31.36-31.36 31.36H350.72c-17.28 0-31.36-14.08-31.36-31.36V237.866667c0-17.066667 14.08-31.146667 31.36-31.146667z m0 0" fill="#05C1E0" p-id="62884"></path><path d="M458.24 451.413333v-133.12c0-2.773333-2.133333-4.906667-4.906667-4.906666h-41.386666c-2.773333 0-4.906667-2.133333-4.906667-4.906667v-19.413333c0-2.773333 2.133333-4.906667 4.906667-4.906667h126.933333c2.773333 0 4.906667 2.133333 4.906667 4.906667v19.413333c0 2.773333-2.133333 4.906667-4.906667 4.906667h-41.173333c-2.773333 0-4.906667 2.133333-4.906667 4.906666v133.12c0 2.773333-2.133333 4.906667-4.906667 4.906667H462.933333c-2.56-0.213333-4.693333-2.346667-4.693333-4.906667z" fill="#FFFFFF" p-id="62885"></path></svg>